<svg xmlns="http://www.w3.org/2000/svg" viewBox="0 0 400 300"><defs/><g data-name="#316_decision_flatline"><path fill="#d1d3d4" d="M293.71 238.54H106.29a.5.5 0 110-1h187.42a.5.5 0 010 1z"/><path fill="#fff" d="M148.91 248.82c-.54.14 11 2.2 13.6 3.34.88.38.76 5.42.76 5.42L132.84 259v-13.5z"/><path fill="#231f20" d="M132.84 259.46a.52.52 0 01-.35-.14.55.55 0 01-.15-.36V245.5a.49.49 0 01.18-.38.46.46 0 01.42-.1l16.06 3.32a.48.48 0 01.23.1c.44.14 2 .46 3.49.78a83.59 83.59 0 0110 2.48c1 .43 1.12 3.44 1.06 5.89a.49.49 0 01-.47.49l-30.44 1.37zm.5-13.34v12.31l29.44-1.33c0-2.2-.2-4.21-.51-4.5a88.31 88.31 0 00-9.75-2.4 31.63 31.63 0 01-3.83-.91z"/><path fill="#fff" d="M140 254v10.71s25.21 1.36 25.76 0 0-4.47 0-4.47-16-4.34-16-4.88S140 254 140 254z"/><path fill="#231f20" d="M157.91 265.86c-4.31 0-10.29-.2-17.89-.61a.5.5 0 01-.48-.5V254a.48.48 0 01.16-.36.49.49 0 01.38-.13c8.36.69 9.88 1.14 10.16 1.57 1.18.63 10.14 3.17 15.69 4.68a.5.5 0 01.36.39c.06.34.55 3.3 0 4.75-.29.66-3.07.96-8.38.96zm-17.37-1.58c11.18.59 23.43.85 24.83.19a10.5 10.5 0 000-3.79c-12.63-3.43-15.32-4.44-15.89-4.94-.58-.3-4.87-.8-8.92-1.15zm8.88-8.58zM127.62 165.12c0 .81 2.71 86.08 2.71 86.08s17.08 2.17 17.08 0 3.8-88.52 3.8-88.52z"/><path fill="#231f20" d="M125.18 158.07c0 .82 0 8.68 1.9 11.66s10 86.35 10 86.35H153s9.28-93.94 9-99.36z"/><path fill="#fff" d="M184.81 180.57l-35.9 11.57 9.19 2.69 37.15-12.57-10.44-1.69z"/><path fill="#231f20" d="M158.1 195.33h-.14l-9.19-2.69a.52.52 0 01-.36-.48.5.5 0 01.35-.48l35.89-11.57a.45.45 0 01.23 0l10.45 1.68a.52.52 0 01.42.46.51.51 0 01-.34.51l-37.15 12.54a.41.41 0 01-.16.03zm-7.49-3.22l7.48 2.19 35.09-11.87-8.34-1.35z"/><path fill="#fff" d="M148.91 192.14l1.25 34.14 9.26 2.5-1.32-33.95-9.19-2.69z"/><path fill="#231f20" d="M159.42 229.28h-.13l-9.26-2.5a.5.5 0 01-.37-.46l-1.25-34.14a.53.53 0 01.2-.42.46.46 0 01.44-.08l9.19 2.69a.48.48 0 01.36.46l1.32 33.95a.53.53 0 01-.19.41.51.51 0 01-.31.09zm-8.77-3.39l8.24 2.23-1.27-32.91-8.18-2.4z"/><path fill="#fff" d="M159.42 228.78l34.89-14.44.94-32.08-37.15 12.57 1.32 33.95z"/><path fill="#231f20" d="M159.42 229.28a.5.5 0 01-.27-.08.48.48 0 01-.23-.4l-1.32-34a.51.51 0 01.34-.5l37.15-12.57a.49.49 0 01.45.08.48.48 0 01.21.41l-.94 32.08a.52.52 0 01-.31.45l-34.89 14.44a.43.43 0 01-.19.09zm-.8-34.1l1.27 32.82 33.93-14 .91-31z"/><path fill="#e6e7e8" d="M154.17 224a.5.5 0 01-.5-.48l-1.13-27.76a.5.5 0 111 0l1.13 27.77a.51.51 0 01-.48.52z"/><path fill="#231f20" d="M179.3 185.41a.5.5 0 01-.5-.5v-5.32l-6 2.2a.5.5 0 11-.34-.94l6.7-2.44a.5.5 0 01.67.47v6a.5.5 0 01-.53.53z"/><path fill="#fff" d="M173.85 171.44c0 .13 2.53 10 2.16 11.26-.67 2.15-4.11 3.26-6.12 3.43a7 7 0 01-6-3.33 3.92 3.92 0 01-.24-3.75 6.61 6.61 0 011.65-1.81 1 1 0 00.38-.54 1 1 0 00-.07-.48l-1.92-5.73c1.52-.38 3.63.27 5.17.43.38.08 4.91.24 4.99.52z"/><path fill="#231f20" d="M169.53 186.64a7.61 7.61 0 01-6.08-3.58 4.41 4.41 0 01-.25-4.25 6.82 6.82 0 011.67-1.87l.09-.08c0-.05.21-.19.22-.24a.93.93 0 00-.06-.24l-1.91-5.73a.51.51 0 010-.4.49.49 0 01.32-.24 9.79 9.79 0 013.9.19c.51.09 1 .18 1.44.22h.63c4.63.28 4.68.42 4.8.84l-.49.12.49-.11c.77 3.06 2.51 10.31 2.15 11.51-.75 2.42-4.42 3.6-6.56 3.78zm-5.19-15.75l1.73 5.18a1.51 1.51 0 01.1.71 1.46 1.46 0 01-.55.83l-.1.08a6.12 6.12 0 00-1.44 1.59 3.46 3.46 0 00.23 3.27 6.54 6.54 0 005.54 3.08c2-.17 5.11-1.24 5.68-3.08.2-.71-.92-6-2.1-10.75-.72-.15-3.12-.29-4-.34h-.67c-.47 0-1-.14-1.52-.24a12.11 12.11 0 00-2.9-.33z"/><path fill="#231f20" d="M160.91 165.63l1.37 6.81h13.2l-2.06-8.48-12.51 1.67z"/><path fill="#fff" d="M140.93 86.4a9.81 9.81 0 01-2.27-.57 2.93 2.93 0 01-1.48-1 1.24 1.24 0 01.1-1.64c.14-.11.31-.2.35-.37a.59.59 0 00-.18-.47 26.66 26.66 0 01-5-9.5A11.09 11.09 0 01132 68a5.64 5.64 0 011.4-3c.59-.63 1.45-.82 1.75-1.67 2-5.41 8.28-5.92 13.08-5.44 2.79.28 6.44 1.33 7.45 4.12 1.87 5.13.87 10.88-1.77 15.55s-7.36 9.53-12.98 8.84z"/><path fill="#231f20" d="M142 87a10.71 10.71 0 01-1.13-.07 10.47 10.47 0 01-2.39-.6 3.5 3.5 0 01-1.71-1.17 1.76 1.76 0 01.19-2.32l.12-.09A27.24 27.24 0 01132 73a11.68 11.68 0 01-.51-5.06 6.15 6.15 0 011.51-3.21 4.24 4.24 0 01.82-.65c.39-.27.7-.47.83-.85 2-5.68 8.53-6.27 13.6-5.77 2 .2 6.62 1 7.87 4.45 1.8 4.93 1.14 10.75-1.81 16C151.06 83.65 146.53 87 142 87zm-1-1.06c6.63.81 11.22-6.32 12.46-8.53 2.81-5 3.44-10.48 1.74-15.13-1.05-2.9-5.26-3.62-7-3.79-4.73-.47-10.74 0-12.57 5.11a2.69 2.69 0 01-1.21 1.33 4.32 4.32 0 00-.65.51 5.24 5.24 0 00-1.27 2.69 10.37 10.37 0 00.48 4.62 26.28 26.28 0 004.85 9.25 1.05 1.05 0 01.29.9 1 1 0 01-.45.59.78.78 0 00-.08 1 2.55 2.55 0 001.24.8 9.66 9.66 0 002.16.55z"/><path fill="#fff" d="M157.12 74.65s4.24 4.72 3.69 5.91-3.05.83-3.05.83"/><path fill="#231f20" d="M158.61 82a5.51 5.51 0 01-.92-.07.5.5 0 01-.42-.56.51.51 0 01.57-.43c.69.11 2.21.11 2.51-.54s-1.51-3-3.6-5.37a.49.49 0 010-.7.5.5 0 01.71 0c1.34 1.5 4.39 5.12 3.76 6.47-.42.96-1.71 1.2-2.61 1.2z"/><path fill="#fff" d="M155.36 67.84c2.47 1.47 2.39 5.37 2.74 7.84.49 3.48.9 7 1.23 10.48.2 2.22-5.5 3.12-6.6 2.61l2.18 8.57-12.68-2.82-1.11-10.11s3.78-.54 5.34-5.36.45-11.72.45-11.72 6.09-.93 8.45.51z"/><path fill="#231f20" d="M154.91 97.84h-.11L142.12 95a.51.51 0 01-.39-.44l-1.11-10.11a.5.5 0 01.43-.55c.14 0 3.49-.57 4.94-5 1.51-4.65.44-11.42.43-11.49a.49.49 0 01.09-.37.48.48 0 01.32-.2c.26 0 6.25-.94 8.78.57 2.27 1.35 2.58 4.41 2.83 6.86.05.48.1.93.15 1.34.49 3.48.91 7 1.23 10.5a2.08 2.08 0 01-1.06 1.89 9.79 9.79 0 01-5.36 1.36l2 7.83a.48.48 0 01-.12.47.51.51 0 01-.37.18zm-12.22-3.73l11.53 2.57-2-7.79a.5.5 0 01.69-.58 8.45 8.45 0 005.25-1.1c.46-.32.68-.66.65-1-.33-3.48-.74-7-1.23-10.46-.06-.42-.1-.89-.15-1.38-.23-2.23-.51-5-2.35-6.1-1.85-1.1-6.16-.69-7.62-.51.23 1.71.81 7.27-.54 11.45a8 8 0 01-5.27 5.58z"/><path fill="#fff" d="M158.86 83.58a13.74 13.74 0 00-4.51-.48"/><path fill="#231f20" d="M158.86 84.08a.39.39 0 01-.18 0 15.15 15.15 0 00-4.33-.44.49.49 0 01-.5-.49.55.55 0 01.6-.51 14 14 0 014.59.51.5.5 0 01.28.65.49.49 0 01-.46.28z"/><path fill="#fff" d="M150.78 77.87a4.83 4.83 0 00-1.33-2.25 7 7 0 00-1.45-1.39 2.29 2.29 0 00-2-.29 2.11 2.11 0 00-1.2 1.28 3.88 3.88 0 00-.18 1.79 7.55 7.55 0 004.38 6.11l-.22-.18"/><path fill="#231f20" d="M149 83.62a.48.48 0 01-.2 0 8.09 8.09 0 01-4.72-6.53 4.43 4.43 0 01.21-2 2.59 2.59 0 011.5-1.57 2.77 2.77 0 012.39.33 7.46 7.46 0 011.61 1.49 5.24 5.24 0 011.45 2.5.51.51 0 01-.42.57.49.49 0 01-.57-.41 4.45 4.45 0 00-1.21-2 6.46 6.46 0 00-1.38-1.29 1.82 1.82 0 00-1.53-.25 1.64 1.64 0 00-.91 1 3.65 3.65 0 00-.15 1.57 7.1 7.1 0 003.68 5.48.5.5 0 01.34.11l.22.18a.5.5 0 01.12.65.51.51 0 01-.43.17zM152.73 88.77a9.37 9.37 0 01-4.73-2.31 7 7 0 005.58 5.46z"/><path fill="#231f20" d="M153.53 92.42h-.09a7.61 7.61 0 01-6-5.87.5.5 0 01.86-.43 8.8 8.8 0 004.48 2.15.5.5 0 01.41.37l.8 3.16a.49.49 0 01-.48.62zm-4.53-4.5a6.23 6.23 0 003.85 3.33l-.52-2a10.9 10.9 0 01-3.33-1.33z"/><ellipse cx="154.78" cy="72.53" fill="#231f20" rx="1.26" ry=".49" transform="rotate(-88.82 154.79443879 72.53207213)"/><path fill="#fff" d="M138.75 96.15l1.29-4.5s15.69 1.29 17.11 2.25 2.7 5.95 2.7 5.95z"/><path fill="#231f20" d="M159.85 100.35h-.08l-21.11-3.71a.54.54 0 01-.34-.23.51.51 0 010-.4l1.29-4.5a.51.51 0 01.52-.36c2.64.21 15.9 1.35 17.35 2.33s2.77 5.72 2.91 6.25a.5.5 0 01-.49.62zm-20.47-4.6l19.78 3.47c-.54-1.86-1.48-4.37-2.29-4.91s-10.42-1.63-16.47-2.13z"/><path fill="#1890ff" d="M163.93 99.85c-7.54-4.89-16.26-7.48-28.59-4-9.67 2.75-12 47.32-10.16 65.17h45.36l-.43-7.91s1.35-48.36-6.18-53.26z"/><path fill="#1890ff" d="M159.85 168.25h16.8c-1.07-8.4-10.55-65.85-11-66.27-8.51-8.08-14.82 12.06-14.44 18.18.32 5.09 7.11 37.33 8.64 48.09z"/><path fill="#231f20" d="M158.15 160.48a.51.51 0 01-.5-.42L150 114a.51.51 0 01.41-.58.51.51 0 01.58.41l7.63 46.11a.5.5 0 01-.41.57zM163.42 191.29a.5.5 0 01-.5-.5v-6.57a.49.49 0 01.33-.46l5.11-2a.49.49 0 01.64.29.49.49 0 01-.28.64l-4.8 1.85v6.22a.5.5 0 01-.5.53zM179.3 206h-.11l-21-4.62a.49.49 0 01-.38-.59.5.5 0 01.6-.38l20.72 4.59 15.56-16.42a.5.5 0 11.73.69l-15.75 16.62a.52.52 0 01-.37.11zM255 34.65a3.34 3.34 0 013.36 3.35v217h-6.68V38a3.34 3.34 0 013.32-3.35z"/><path fill="#fff" d="M278.42 49.14h-43.44v-4.93L217.1 58.85l17.88 14.64v-4.93h43.44V49.14z"/><path fill="#231f20" d="M235 74a.56.56 0 01-.32-.11l-17.89-14.65a.5.5 0 010-.78l17.87-14.64a.51.51 0 01.82.39v4.43h42.94a.51.51 0 01.5.5v19.42a.51.51 0 01-.5.5h-42.94v4.43a.48.48 0 01-.29.45.38.38 0 01-.19.06zm-17.11-15.15l16.59 13.59v-3.88a.5.5 0 01.5-.5h42.94V49.64H235a.5.5 0 01-.5-.5v-3.87z"/><path fill="#fff" d="M232.39 82.45h43.44v-4.94l17.88 14.64-17.88 14.64v-4.93h-43.44V82.45z"/><path fill="#231f20" d="M275.83 107.29a.49.49 0 01-.21 0 .51.51 0 01-.29-.46v-4.43h-42.94a.5.5 0 01-.5-.5V82.45a.5.5 0 01.5-.5h42.94v-4.44a.49.49 0 01.29-.45.51.51 0 01.53.06L294 91.77a.47.47 0 01.19.38.49.49 0 01-.19.39l-17.87 14.64a.48.48 0 01-.3.11zm-42.94-5.93h42.94a.5.5 0 01.5.5v3.88l16.59-13.59-16.59-13.58v3.88a.5.5 0 01-.5.5h-42.94z"/><path fill="#fff" d="M234.18 110.81l39.65 17.75 2.01-4.51 10.34 20.67-22.3 6.06 2.02-4.5-39.65-17.75 7.93-17.72z"/><path fill="#231f20" d="M263.88 151.28a.5.5 0 01-.45-.7l1.81-4.05L226 129a.48.48 0 01-.26-.28.5.5 0 010-.38l7.93-17.72a.49.49 0 01.66-.25l39.19 17.53 1.82-4a.48.48 0 01.44-.3.51.51 0 01.46.28l10.34 20.66a.54.54 0 010 .43.51.51 0 01-.33.28L264 151.26zm-37-23l39.19 17.54a.49.49 0 01.25.66l-1.55 3.52 20.69-5.63-9.59-19.17-1.59 3.54a.49.49 0 01-.66.25l-39.19-17.54z"/><path fill="#d1d3d4" d="M269.09 255.47h-24.47a.51.51 0 01-.5-.5.5.5 0 01.5-.5h24.47a.5.5 0 01.5.5.51.51 0 01-.5.5z"/></g></svg>