<svg xmlns="http://www.w3.org/2000/svg" viewBox="0 0 59 59"><defs/><defs><clipPath id="a"><path fill="#fff" d="M0 0h59v59H0z" data-name="Rectangle 91" transform="translate(1041.004 321.004)"/></clipPath><clipPath id="c"><path fill="#fdce30" d="M0 0h14v15H0z" data-name="Rectangle 60" transform="translate(.022 -.426)"/></clipPath><linearGradient id="b" x2="1" y2="1" gradientUnits="objectBoundingBox"><stop offset="0" stop-color="#5f81f4"/><stop offset="1" stop-color="#5f81f3"/><stop offset="1" stop-color="#30417a"/></linearGradient></defs><g clip-path="url(#a)" data-name="Mask Group 52" transform="translate(-1041.004 -321.004)"><g data-name="Group 4"><path fill="url(#b)" d="M0 0h54v54H0z" data-name="Rectangle 59" transform="translate(1043.004 323.004)"/><text fill="#fff" font-family="BalooThambi-Regular, Baloo Thambi" font-size="36" transform="translate(1058.004 358.004)"><tspan x="0" y="0">B</tspan></text><g clip-path="url(#c)" data-name="Mask Group 40" transform="translate(1074.982 330.43)"><g fill="#fdce30"><path d="M14.022 9.574a2.7 2.7 0 01-2-1 2.692 2.692 0 01-1-2c0-.232-.768 0-1 0s0-.232 0 0a2.691 2.691 0 01-1 2 2.7 2.7 0 01-2 1 2.1 2.1 0 00-1 1c0 .232.768 0 1 0a2.888 2.888 0 013 3c0 .232-.232 1 0 1a2.1 2.1 0 001-1 2.888 2.888 0 013-3c.232 0 0 .232 0 0s.231-1 0-1zm0 0" data-name="Path 12"/><path d="M6.022 6.574c-1.232 0-2.994-.768-3-2 0-.232.232-1 0-1s0 .768 0 1c-.006 1.232-1.768 2-3 2-.232 0 0-.232 0 0s-.232 1 0 1c1.234 0 3 .766 3 2 0 .232-.232 1 0 1s0-.768 0-1c0-1.234 1.766-2 3-2 .232 0 0-.768 0-1s.232 0 0 0zm0 0" data-name="Path 13"/><path d="M6.022 2.574a2.323 2.323 0 012 2c0 .232-.232 0 0 0s1 .232 1 0a2.32 2.32 0 012-2c.232 0 0 .232 0 0s.232-1 0-1c-.906 0-2-.094-2-1a2.1 2.1 0 00-1-1c-.232 0 0 .768 0 1 0 .908-1.092 1-2 1-.232 0 0 .768 0 1s-.232 0 0 0zm0 0" data-name="Path 14"/></g></g></g></g></svg>